<?xml version="1.0" encoding="utf-8"?>
<!-- Generator: Adobe Illustrator 18.0.0, SVG Export Plug-In . SVG Version: 6.00 Build 0)  -->
<!DOCTYPE svg PUBLIC "-//W3C//DTD SVG 1.1//EN" "http://www.w3.org/Graphics/SVG/1.1/DTD/svg11.dtd">
<svg version="1.1" id="Layer_1" xmlns="http://www.w3.org/2000/svg" xmlns:xlink="http://www.w3.org/1999/xlink" x="0px" y="0px"
	 viewBox="181 0 63 20" enable-background="new 181 0 63 20" xml:space="preserve">
<g>
	<g>
		<path fill="#FFFFFF" d="M190,8.5c0-0.1-0.1-0.2-0.2-0.2c-0.1,0-0.1,0.1-0.2,0.1l-1.9,7.5c-0.2,0.6-0.5,0.8-0.9,0.8
			c-0.5,0-0.8-0.3-0.9-0.8l-1.9-7.5c-0.1-0.2-0.3-0.2-0.3,0l-1.2,8c0,0.2-0.2,0.3-0.4,0.3c-0.3,0-0.4-0.2-0.4-0.4l1.2-8
			c0.1-0.5,0.4-0.8,0.9-0.8c0.5,0,0.8,0.3,0.9,0.7l1.9,7.7c0,0.2,0.3,0.2,0.3,0l1.9-7.7c0.1-0.4,0.4-0.7,0.9-0.7
			c0.5,0,0.8,0.3,0.9,0.8l1.2,8c0,0.2-0.1,0.4-0.4,0.4c-0.2,0-0.4-0.1-0.4-0.3L190,8.5z"/>
		<path fill="#FFFFFF" d="M197.5,10.7c0.5,0.5,0.8,1.1,0.8,1.8c0,0.6,0,1.2,0,1.8c0,0.7-0.3,1.4-0.9,1.9c-0.5,0.5-1.2,0.7-1.9,0.7
			c-0.8,0-1.4-0.2-1.9-0.7c-0.5-0.5-0.8-1.1-0.9-1.9c0-0.6,0-1.2,0-1.8c0-0.7,0.3-1.4,0.8-1.8c0.5-0.5,1.2-0.7,2-0.7
			C196.3,10,197,10.2,197.5,10.7z M193.5,14.3c0.1,1.1,0.9,1.9,2,1.9c1.1,0,1.9-0.7,2-1.9c0-0.5,0-1.1,0-1.8c-0.1-1.1-0.9-1.8-2-1.8
			s-2,0.7-2,1.8C193.5,13.3,193.5,13.9,193.5,14.3z"/>
		<path fill="#FFFFFF" d="M205,16.5c0,0.2-0.2,0.4-0.4,0.4c-0.2,0-0.4-0.2-0.4-0.4v-3.8c0-1.3-0.8-1.9-1.9-1.9c-0.8,0-1.5,0.2-2,0.5
			v5.2c0,0.2-0.2,0.4-0.4,0.4c-0.2,0-0.4-0.2-0.4-0.4v-5.4c0-0.2,0.1-0.3,0.2-0.4c0.5-0.3,1.4-0.7,2.6-0.7c1.7,0,2.7,0.9,2.7,2.6
			V16.5z"/>
		<path fill="#FFFFFF" d="M211.5,15.9c0,0.2-0.1,0.3-0.2,0.3c-0.5,0.3-1.4,0.7-2.6,0.7c-1.6,0-2.5-0.8-2.5-2.1
			c0-1.2,0.9-2.1,2.5-2.1c0.6,0,1.2,0.1,1.9,0.3v-0.6c0-1.2-0.6-1.7-1.8-1.7c-0.5,0-1.1,0.1-1.7,0.4c-0.3,0.1-0.6,0-0.6-0.3
			c0-0.2,0.1-0.3,0.2-0.4c0.6-0.3,1.3-0.5,2-0.5c1.7,0,2.5,0.7,2.5,2.3V15.9z M210.7,15.6v-1.9c-0.8-0.2-1.4-0.3-1.9-0.3
			c-1.2,0-1.8,0.6-1.8,1.4c0,0.9,0.6,1.4,1.8,1.4C209.5,16.2,210.3,15.9,210.7,15.6z"/>
		<path fill="#FFFFFF" d="M216.1,10.5c0,0.2-0.1,0.3-0.4,0.3c-0.2,0-0.6-0.1-1-0.1c-0.9,0-1.3,0.4-1.3,1.3v4.4
			c0,0.2-0.2,0.4-0.4,0.4c-0.2,0-0.4-0.2-0.4-0.4V12c0-1.2,0.7-2,2-2c0.4,0,0.8,0,1.1,0.1C216,10.2,216.1,10.3,216.1,10.5z"/>
		<path fill="#FFFFFF" d="M221.3,15c0.1-0.2,0.2-0.3,0.4-0.3c0.2,0,0.3,0.1,0.3,0.4c0,0.3-0.2,0.7-0.6,1.1c-0.4,0.4-1.1,0.7-1.9,0.7
			s-1.5-0.2-2-0.7c-0.5-0.5-0.8-1.1-0.8-1.9c0-0.6,0-1.2,0-1.8c0-0.8,0.3-1.4,0.8-1.8c0.5-0.5,1.2-0.7,2-0.7s1.5,0.3,1.9,0.7
			c0.4,0.4,0.6,0.8,0.6,1.1c0,0.3-0.1,0.4-0.4,0.4c-0.2,0-0.3-0.1-0.4-0.3c-0.3-0.8-1-1.2-1.8-1.2c-1.2,0-2,0.7-2.1,1.8
			c0,0.7,0,1.3,0,1.8c0.1,1.1,0.9,1.9,2.1,1.9C220.3,16.2,221,15.8,221.3,15z"/>
		<path fill="#FFFFFF" d="M223.7,11c0.5-0.6,1.4-1,2.2-1c1.5,0,2.5,0.9,2.5,2.6v3.9c0,0.2-0.2,0.4-0.4,0.4s-0.4-0.2-0.4-0.4v-3.8
			c0-1.2-0.6-1.9-1.8-1.9c-0.8,0-1.7,0.5-2.2,1.2v4.6c0,0.2-0.2,0.4-0.4,0.4s-0.4-0.2-0.4-0.4V8.1c0-0.2,0.2-0.4,0.4-0.4
			c0.2,0,0.4,0.2,0.4,0.4V11z"/>
	</g>
	<path fill="#FFFFFF" d="M236,14.6c0,0,0-0.2,0.1-0.1c1.4,0.9,2.8,1.1,2.8,1.1s-0.1-1.3-1.3-2.7c-0.1-0.1,0-0.2,0.1-0.2
		C242.4,10.8,242,4,242,4s-2.7,2-5,7c-3.2,6.9-5.8,7.1-5.8,7.1s-0.1-3.6,2.5-5.2c0,0,0-0.1,0-0.1c-3.7-1-3.3-5.4-3.3-5.4
		s3.7,0.7,5.5,3.2l0,0.1c0,0.1-0.1,0.1-0.1,0c-2.3-2-4.6-2.3-4.6-2.3s-0.2,2.8,2.8,4.3c0.1,0,0.1,0.1,0,0.2
		c-1.9,2.2-1.9,3.9-1.9,3.9s2.8-1.5,4.7-6.8c2.3-6.6,6.3-8.2,6.3-8.2s0.5,9.7-5.1,10.9c0,0,0,0.1,0,0.1c1.8,1.4,1.7,3.6,1.7,3.6
		S237.8,16.3,236,14.6z"/>
</g>
</svg>
