<?xml version="1.0" encoding="utf-8"?>
<!-- Generator: Adobe Illustrator 18.0.0, SVG Export Plug-In . SVG Version: 6.00 Build 0)  -->
<!DOCTYPE svg PUBLIC "-//W3C//DTD SVG 1.1//EN" "http://www.w3.org/Graphics/SVG/1.1/DTD/svg11.dtd">
<svg version="1.1" id="Layer_1" xmlns="http://www.w3.org/2000/svg" xmlns:xlink="http://www.w3.org/1999/xlink" x="0px" y="0px"
	 viewBox="335.9 187.1 170.1 221.1" enable-background="new 335.9 187.1 170.1 221.1" xml:space="preserve">
<g>
	<path fill="#FFFFFF" d="M410.9,359.8c0,0,0-2.7,1.3-1.3c18.7,12,37.4,14.7,37.4,14.7s-1.3-17.4-17.4-36.1c-1.3-1.3,0-2.7,1.3-2.7
		c62.8-25.4,57.5-116.3,57.5-116.3s-36.1,26.7-66.8,93.5c-42.8,92.2-77.5,94.9-77.5,94.9s-1.3-48.1,33.4-69.5v-1.3
		c-49.4-13.4-44.1-72.2-44.1-72.2s49.4,9.4,73.5,42.8v1.3c0,1.3-1.3,1.3-1.3,0c-30.7-26.7-61.5-30.7-61.5-30.7s-2.7,37.4,37.4,57.5
		c1.3,0,1.3,1.3,0,2.7c-25.4,29.4-25.4,52.1-25.4,52.1s37.4-20,62.8-90.9c30.7-88.2,84.2-109.6,84.2-109.6s6.7,129.6-68.2,145.7v1.3
		c24.1,18.7,22.7,48.1,22.7,48.1S435,382.5,410.9,359.8z"/>
</g>
</svg>
